Coordinates
version=1
nRows=32
nColumns=12
inDegrees=yes

Units are S.I. units (second, meters, Newtons, ...)
Angles are in degrees

endheader
time	SC_y	SC_z	SC_x	AC_y	AC_z	AC_x	GH_y	GH_z	GH_yy	EL_x	PS_y
       0.0              -50.14           17.1          40.54           57.6         0.2324          2.344         -32.94          67.85        -0.7844          75.57          65.14
    0.0438              -50.14           17.1          40.54           57.6         0.2325          2.345         -32.92          67.84        -0.7783          75.56          65.15
    0.0876              -50.14           17.1          40.54          57.59         0.2327          2.347          -32.9          67.83        -0.7717          75.56          65.17
    0.1314              -50.14           17.1          40.54          57.59         0.2329          2.349         -32.88          67.82        -0.7648          75.55          65.18
    0.1752              -50.14           17.1          40.54          57.59         0.2331          2.351         -32.85          67.81        -0.7574          75.55           65.2
     0.219              -50.13           17.1          40.54          57.58         0.2333          2.353         -32.83           67.8        -0.7495          75.54          65.22
    0.2628              -50.13           17.1          40.55          57.58         0.2335          2.356          -32.8          67.79        -0.7411          75.53          65.24
    0.3066              -50.13           17.1          40.55          57.57         0.2338          2.358         -32.77          67.77         -0.732          75.52          65.26
    0.3504              -50.13          17.11          40.55          57.57          0.234          2.361         -32.75          67.76        -0.7224          75.52          65.28
    0.3942              -50.13          17.11          40.55          57.56         0.2343          2.364         -32.71          67.74         -0.712          75.51           65.3
     0.438              -50.12          17.11          40.55          57.56         0.2346          2.367         -32.68          67.73        -0.7009           75.5          65.33
    0.4818              -50.12          17.11          40.55          57.55         0.2349           2.37         -32.64          67.71        -0.6889          75.49          65.35
    0.5256              -50.12          17.11          40.55          57.55         0.2353          2.374          -32.6          67.69         -0.676          75.48          65.38
    0.5694              -50.11          17.11          40.55          57.54         0.2356          2.378         -32.56          67.67        -0.6621          75.46          65.41
    0.6132              -50.11          17.11          40.56          57.53          0.236          2.382         -32.51          67.65         -0.647          75.45          65.45
     0.657              -50.11          17.11          40.56          57.52         0.2365          2.387         -32.46          67.63        -0.6307          75.44          65.48
    0.7008               -50.1          17.11          40.56          57.52         0.2369          2.392         -32.41           67.6        -0.6129          75.42          65.52
    0.7446               -50.1          17.11          40.56          57.51         0.2375          2.397         -32.35          67.58        -0.5935           75.4          65.57
    0.7884              -50.09          17.11          40.56           57.5          0.238          2.403         -32.29          67.55        -0.5724          75.39          65.61
    0.8322              -50.09          17.12          40.57          57.48         0.2386           2.41         -32.22          67.51        -0.5492          75.37          65.67
     0.876              -50.08          17.12          40.57          57.47         0.2393          2.417         -32.14          67.48        -0.5238          75.34          65.72
    0.9198              -50.08          17.12          40.57          57.46         0.2401          2.424         -32.05          67.44        -0.4958          75.32          65.79
    0.9636              -50.07          17.12          40.58          57.44         0.2409          2.433         -31.96           67.4        -0.4649          75.29          65.86
     1.007              -50.06          17.12          40.58          57.43         0.2418          2.443         -31.85          67.35        -0.4307          75.26          65.93
     1.051              -50.05          17.12          40.59          57.41         0.2428          2.453         -31.74          67.29        -0.3926          75.23          66.02
     1.095              -50.04          17.13          40.59          57.39          0.244          2.465         -31.61          67.23        -0.3501          75.19          66.11
     1.139              -50.03          17.13           40.6          57.36         0.2452          2.479         -31.46          67.17        -0.3025          75.15          66.22
     1.183              -50.02          17.13           40.6          57.34         0.2467          2.494          -31.3          67.09         -0.249          75.11          66.34
     1.226              -50.01          17.14          40.61          57.31         0.2483          2.511         -31.11          67.01        -0.1885          75.05          66.48
      1.27              -49.99          17.14          40.62          57.27         0.2501           2.53          -30.9          66.91        -0.1198           75.0          66.63
     1.314              -49.97          17.14          40.63          57.24         0.2522          2.552         -30.66           66.8       -0.04144          74.93          66.81
     1.358              -49.95          17.15          40.64          57.19         0.2546          2.577         -30.39          66.67        0.04851          74.85          67.01
